<svg xmlns="http://www.w3.org/2000/svg" viewBox="0 0 160.0315 160"><title>btn-page-2</title><path d="M39.6914,43.245H142.15L118.29,67.1042a5.2277,5.2277,0,1,0,7.4177,7.3683l32.7517-32.7184.215-.2974.0824-.0834.15-.1486.0654-.0664c.15-.232.2984-.4471.4139-.629v-.0331l.0662-.1488.0834-.2159a3.0573,3.0573,0,0,0,.2643-.6621l.0832-.0824.0665-.447.0823-.4473v-.8941l-.0823-.5133-.0665-.4471-.0832-.0664a2.8916,2.8916,0,0,0-.2643-.6621l-.0834-.1488-.0662-.232a4.6607,4.6607,0,0,0-.4139-.5959l-.0654-.1494-.15-.1489-.0824-.0825-.215-.2652L125.7075,1.5032a5.3269,5.3269,0,0,0-7.4177,0,5.3289,5.3289,0,0,0,0,7.4179L142.15,32.78H39.6914a5.2327,5.2327,0,0,0,0,10.4649Zm80.6117,73.5884a5.1916,5.1916,0,1,1,0,10.383H17.8014l23.9449,23.8624a5.2575,5.2575,0,0,1-7.4517,7.4186L1.49,125.7261l-.1819-.2159-.0662-.1487-.1489-.1157-.1163-.15c-.0826-.1818-.2977-.414-.3639-.5626v-.0665L.53,124.2852l-.1157-.1818a3.3372,3.3372,0,0,1-.2321-.6632l-.0331-.0662-.0664-.397L0,122.4305v-.8944l.0824-.48.0664-.4471.0331-.0665c.0833-.2312.15-.4471.2321-.6621l.1157-.182.0832-.1819c.0662-.15.2975-.414.3639-.5465l.1163-.15.1489-.1819.0662-.0824.1819-.215L34.2946,85.5524a5.2471,5.2471,0,0,1,7.4517,0,5.33,5.33,0,0,1,0,7.4187L17.8014,116.8334Z"/><path d="M96.8485,95.02l-.15-.1886a5.1517,5.1517,0,0,0-4.0672-1.6794A5.79,5.79,0,0,0,89.66,94.1969H79.55c5.1158-4.384,8.7108-7.5631,10.6748-9.4357A31.14,31.14,0,0,0,96.64,77.17a14.211,14.211,0,0,0,1.4224-6.2728,15.0091,15.0091,0,0,0-4.92-11.2995A17.1694,17.1694,0,0,0,80.8067,55.012a19.6677,19.6677,0,0,0-8.8954,2.067,15.4677,15.4677,0,0,0-6.3563,5.6143,12.5894,12.5894,0,0,0-2.2784,6.2922,5.1488,5.1488,0,0,0,1.6181,3.7577,5.5523,5.5523,0,0,0,6.9331.6229l.1459-.1108a5.86,5.86,0,0,0,1.9314-2.9779,6.3492,6.3492,0,0,1,1.5687-2.661,7.505,7.505,0,0,1,5.3062-1.8,7.0464,7.0464,0,0,1,4.8736,1.6163A4.15,4.15,0,0,1,87.2574,70.5a5.2611,5.2611,0,0,1-1.5789,3.3607c-2.6077,2.9672-10.4041,9.8078-23.17,20.3329l-.6644.5464V105H98.1311l-.0088-5.0694A7.4091,7.4091,0,0,0,96.8485,95.02Z"/></svg>