<svg xmlns="http://www.w3.org/2000/svg" viewBox="0 0 160.0315 160"><title>btn-page-1</title><path d="M39.6914,43.245H142.15L118.29,67.1042a5.2277,5.2277,0,1,0,7.4177,7.3683l32.7517-32.7184.215-.2974.0824-.0834.15-.1486.0654-.0664c.15-.232.2984-.4471.4139-.629v-.0331l.0662-.1488.0834-.2159a3.0573,3.0573,0,0,0,.2643-.6621l.0832-.0824.0665-.447.0823-.4473v-.8941l-.0823-.5133-.0665-.4471-.0832-.0664a2.8916,2.8916,0,0,0-.2643-.6621l-.0834-.1488-.0662-.232a4.6607,4.6607,0,0,0-.4139-.5959l-.0654-.1494-.15-.1489-.0824-.0825-.215-.2652L125.7075,1.5032a5.3269,5.3269,0,0,0-7.4177,0,5.3289,5.3289,0,0,0,0,7.4179L142.15,32.78H39.6914a5.2327,5.2327,0,0,0,0,10.4649Zm80.6117,73.5884a5.1916,5.1916,0,1,1,0,10.383H17.8014l23.9449,23.8624a5.2575,5.2575,0,0,1-7.4517,7.4186L1.49,125.7261l-.1819-.2159-.0662-.1487-.1489-.1157-.1163-.15c-.0826-.1818-.2977-.414-.3639-.5626v-.0665L.53,124.2852l-.1157-.1818a3.3372,3.3372,0,0,1-.2321-.6632l-.0331-.0662-.0664-.397L0,122.4305v-.8944l.0824-.48.0664-.4471.0331-.0665c.0833-.2312.15-.4471.2321-.6621l.1157-.182.0832-.1819c.0662-.15.2975-.414.3639-.5465l.1163-.15.1489-.1819.0662-.0824.1819-.215L34.2946,85.5524a5.2471,5.2471,0,0,1,7.4517,0,5.33,5.33,0,0,1,0,7.4187L17.8014,116.8334Z"/><path d="M69.4888,94.2939a7.147,7.147,0,0,0-4.8664,1.3118l-.15.12a4.9717,4.9717,0,0,0-1.692,3.8208,5.0976,5.0976,0,0,0,1.6831,3.9773l.16.1278A7.16,7.16,0,0,0,68.7212,105c.2008,0,.4-.0106.5969-.03l21.23-.0088a7.1445,7.1445,0,0,0,4.8647-1.31l.155-.1232a4.9789,4.9789,0,0,0,1.6866-3.8189,5.0913,5.0913,0,0,0-1.6831-3.9776l-.1568-.1266a7.0516,7.0516,0,0,0-4.6957-1.3206H85.365V55L67.9957,59.4916A8.3193,8.3193,0,0,0,64.11,61.3227l-.2289.2324a4.87,4.87,0,0,0-1.1356,3.3242,5.4634,5.4634,0,0,0,1.4191,3.8489A4.9043,4.9043,0,0,0,67.95,70.4237h.021a11.1906,11.1906,0,0,0,2.634-.47l4.0671-1.067V94.2875Z"/></svg>