<svg xmlns="http://www.w3.org/2000/svg" viewBox="0 0 160.0315 160"><title>btn-page-3</title><path d="M39.6914,43.245H142.15L118.29,67.1042a5.2277,5.2277,0,1,0,7.4177,7.3683l32.7517-32.7184.215-.2974.0824-.0834.15-.1486.0654-.0664c.15-.232.2984-.4471.4139-.629v-.0331l.0662-.1488.0834-.2159a3.0573,3.0573,0,0,0,.2643-.6621l.0832-.0824.0665-.447.0823-.4473v-.8941l-.0823-.5133-.0665-.4471-.0832-.0664a2.8916,2.8916,0,0,0-.2643-.6621l-.0834-.1488-.0662-.232a4.6607,4.6607,0,0,0-.4139-.5959l-.0654-.1494-.15-.1489-.0824-.0825-.215-.2652L125.7075,1.5032a5.3269,5.3269,0,0,0-7.4177,0,5.3289,5.3289,0,0,0,0,7.4179L142.15,32.78H39.6914a5.2327,5.2327,0,0,0,0,10.4649Zm80.6117,73.5884a5.1916,5.1916,0,1,1,0,10.383H17.8014l23.9449,23.8624a5.2575,5.2575,0,0,1-7.4517,7.4186L1.49,125.7261l-.1819-.2159-.0662-.1487-.1489-.1157-.1163-.15c-.0826-.1818-.2977-.414-.3639-.5626v-.0665L.53,124.2852l-.1157-.1818a3.3372,3.3372,0,0,1-.2321-.6632l-.0331-.0662-.0664-.397L0,122.4305v-.8944l.0824-.48.0664-.4471.0331-.0665c.0833-.2312.15-.4471.2321-.6621l.1157-.182.0832-.1819c.0662-.15.2975-.414.3639-.5465l.1163-.15.1489-.1819.0662-.0824.1819-.215L34.2946,85.5524a5.2471,5.2471,0,0,1,7.4517,0,5.33,5.33,0,0,1,0,7.4187L17.8014,116.8334Z"/><path d="M85.8205,92.9719a17.0349,17.0349,0,0,1-8.175,1.4308,24.1086,24.1086,0,0,1-5.1148-.41,7.4268,7.4268,0,0,1-2.3023-1.11,5.5808,5.5808,0,0,0-3.0513-1.0089,5.0536,5.0536,0,0,0-3.75,1.5771,5.3758,5.3758,0,0,0-1.5127,3.9071,5.8664,5.8664,0,0,0,3.2066,4.8709c3.0461,1.8524,7.3357,2.7516,13.0441,2.7516h.01q.51.0184,1.016.0192a28.1986,28.1986,0,0,0,9.8218-1.7635,14.3236,14.3236,0,0,0,9.0743-13.3142A14.5494,14.5494,0,0,0,96.31,82.7649a16.349,16.349,0,0,0-3.4489-4.172,15.5707,15.5707,0,0,0,2.3422-3.3755A13.03,13.03,0,0,0,96.55,69.3985,13.5433,13.5433,0,0,0,92.0174,59.16,16.1062,16.1062,0,0,0,80.46,55.0177,20.8558,20.8558,0,0,0,68.0107,58.517a7.8492,7.8492,0,0,0-4.01,6.0733,5.2084,5.2084,0,0,0,1.5266,3.81,5.1311,5.1311,0,0,0,3.7259,1.572,5.9175,5.9175,0,0,0,2.5583-.6378,6.5217,6.5217,0,0,0,1.608-1.3663,8.11,8.11,0,0,1,6.34-2.41l.1265.0089.1256-.0105a7.395,7.395,0,0,1,4.7088,1.2774,3.0815,3.0815,0,0,1,1.2442,2.3945,3.262,3.262,0,0,1-.5628,1.7844,4.2763,4.2763,0,0,1-1.5825,1.4709,5.3044,5.3044,0,0,1-2.0236.6639c-.09.007-.6169.0262-3.5011.028a5.1186,5.1186,0,0,0-3.9089,1.5358,5.3729,5.3729,0,0,0-.0679,7.5041,5.6392,5.6392,0,0,0,3.881,1.572,16.932,16.932,0,0,1,4.5937.7337,8.5678,8.5678,0,0,1,3.55,2.5914,4.8156,4.8156,0,0,1,1.1607,3.0149A3.1692,3.1692,0,0,1,85.8205,92.9719Z"/></svg>