<svg xmlns="http://www.w3.org/2000/svg" viewBox="0 0 161.8 162.1"><title>clear</title><path d="M110.5,151.8l.1.1a4.8161,4.8161,0,0,0,3.2,1.3,4.6258,4.6258,0,0,0,3.2-1.3L176,95a15.701,15.701,0,0,0,0-22.6L125.4,23.6a16.8264,16.8264,0,0,0-11.7-4.7A17.0069,17.0069,0,0,0,102,23.6L43,80.5a4.3138,4.3138,0,0,0-1.4,3.2A4.48,4.48,0,0,0,43,86.9l.1.1L24.4,105a15.6739,15.6739,0,0,0-4.9,11.3,15.2912,15.2912,0,0,0,4.9,11.3l43.9,42.3a17.0388,17.0388,0,0,0,3,2.3H23.6a4.5493,4.5493,0,0,0-4.6,4.4,4.485,4.485,0,0,0,4.6,4.4H169.1a4.5493,4.5493,0,0,0,4.6-4.4,4.485,4.485,0,0,0-4.6-4.4H88.8a13.3072,13.3072,0,0,0,3-2.3ZM80.2,165.6a7.17,7.17,0,0,1-5.2-2.1L31.1,121.2a6.7219,6.7219,0,0,1-2.1-5,7.3025,7.3025,0,0,1,2.1-5l18.7-18L104,145.5l-18.7,18A7.1771,7.1771,0,0,1,80.2,165.6Zm89.5-76.9-55.8,53.8L53,83.8l-.1-.1L108.7,30a7.4881,7.4881,0,0,1,10.4,0l50.6,48.8a6.7219,6.7219,0,0,1,2.1,5A6.5051,6.5051,0,0,1,169.7,88.7Z" transform="translate(-19 -18.9)"/></svg>