<?xml version="1.0" encoding="utf-8"?>
<!-- Generator: Adobe Illustrator 22.1.0, SVG Export Plug-In . SVG Version: 6.00 Build 0)  -->
<svg version="1.1" id="Layer_1" xmlns="http://www.w3.org/2000/svg" xmlns:xlink="http://www.w3.org/1999/xlink" x="0px" y="0px"
	 viewBox="0 0 200 200" style="enable-background:new 0 0 200 200;" xml:space="preserve">
<path d="M110.5,151.8l0.1,0.1c0.9,0.8,2,1.3,3.2,1.3c1.2,0,2.4-0.5,3.2-1.3l59-56.9c3.1-3,4.8-7,4.8-11.3s-1.7-8.3-4.8-11.3
	l-50.6-48.8c-3.1-3-7.3-4.7-11.7-4.7c-4.4,0-8.5,1.7-11.7,4.7l-59,56.9c-0.9,0.8-1.4,2-1.4,3.2c0,1.2,0.5,2.3,1.4,3.2l0.1,0.1
	l-18.7,18c-3.1,3-4.9,7-4.9,11.3s1.7,8.3,4.9,11.3l43.9,42.3c0.9,0.9,1.9,1.6,3,2.3H23.6c-2.5,0-4.6,2-4.6,4.4s2,4.4,4.6,4.4h145.5
	c2.5,0,4.6-2,4.6-4.4s-2-4.4-4.6-4.4H88.8c1.1-0.6,2.1-1.4,3-2.3L110.5,151.8z M80.2,165.6c-2,0-3.8-0.7-5.2-2.1l-43.9-42.3
	c-1.4-1.3-2.1-3.1-2.1-5c0-1.9,0.8-3.6,2.1-5l18.7-18l54.2,52.3l-18.7,18C84,164.8,82.2,165.6,80.2,165.6z M169.7,88.7l-55.8,53.8
	L53,83.8l-0.1-0.1L108.7,30c2.9-2.8,7.5-2.8,10.4,0l50.6,48.8c1.4,1.3,2.1,3.1,2.1,5S171.1,87.4,169.7,88.7z"/>
</svg>
