<svg xmlns="http://www.w3.org/2000/svg" viewBox="0 0 160 160"><title>clear</title><path d="M90.4821,131.1771l.0988.0987a4.7675,4.7675,0,0,0,3.1644,1.2831,4.5781,4.5781,0,0,0,3.1644-1.2831l58.3437-56.1624A15.477,15.477,0,0,0,155.6479,53.2q-.1936-.2-.3945-.3939L105.2163,4.6391A16.6561,16.6561,0,0,0,93.6465,0a16.8348,16.8348,0,0,0-11.57,4.6391L23.733,60.8014A4.2543,4.2543,0,0,0,22.3486,63.96a4.4181,4.4181,0,0,0,1.3844,3.1586l.0989.0987L5.34,84.9838A15.4571,15.4571,0,0,0,.4944,96.1373,15.08,15.08,0,0,0,5.34,107.2908l43.4116,41.7516a16.8453,16.8453,0,0,0,2.9667,2.27H4.5488A4.495,4.495,0,0,0,0,155.6556a4.4314,4.4314,0,0,0,4.5169,4.3436l.0319-.0007H148.43a4.495,4.495,0,0,0,4.5489-4.3429,4.4314,4.4314,0,0,0-4.517-4.3437l-.0319.0007H69.0235a13.1554,13.1554,0,0,0,2.9666-2.27Zm-29.963,13.6211a7.0972,7.0972,0,0,1-5.1421-2.0728L11.9654,100.9738a6.6292,6.6292,0,0,1-2.0767-4.9352,7.2014,7.2014,0,0,1,2.0767-4.9352l18.492-17.7666,53.597,51.6219-18.492,17.7667A7.1043,7.1043,0,0,1,60.5191,144.7982Zm88.5044-75.9031L93.8442,121.9976,33.6217,64.0586l-.0988-.0987L88.7021,10.9561a7.4147,7.4147,0,0,1,10.2843,0l50.0371,48.1674A6.6289,6.6289,0,0,1,151.1,64.0586,6.4151,6.4151,0,0,1,149.0235,68.8951Z" transform="translate(0)"/></svg>