<svg xmlns="http://www.w3.org/2000/svg" viewBox="0 0 160 160.0109"><title>clear</title><path d="M90.4029,131.875a5.72,5.72,0,0,0,3.1763,1.0263,5.4819,5.4819,0,0,0,3.8082-1.5433l57.6268-55.4729a16.3022,16.3022,0,0,0,.4148-23.0428q-.2041-.2106-.4148-.4138L105.59,4.8517A17.3524,17.3524,0,0,0,93.5156-.006H93.477A17.5484,17.5484,0,0,0,81.3658,4.8526L23.7568,60.3077a5.2042,5.2042,0,0,0-1.6884,3.8611,5.3922,5.3922,0,0,0,1.0769,3.1576L5.5779,84.2046a16.3317,16.3317,0,0,0-5.0954,11.73A15.9087,15.9087,0,0,0,5.5711,107.668l42.88,41.2395q.2893.2778.5917.5421H5.4868A5.4465,5.4465,0,0,0-.006,154.7461a5.364,5.364,0,0,0,5.3693,5.2589c.0371,0,.0743,0,.1114-.001H147.6458a5.4665,5.4665,0,0,0,5.4248-5.2965A5.3647,5.3647,0,0,0,147.59,149.45H72.2105q.2907-.2648.5643-.544ZM35.5165,64.1592,89.28,12.5147a6.3175,6.3175,0,0,1,8.7883,0l49.43,47.5832a5.5887,5.5887,0,0,1,1.741,4.1737,5.3463,5.3463,0,0,1-1.73,4.0319L93.6738,120.112ZM82.58,124.4063l-17.538,16.85a6.1829,6.1829,0,0,1-4.28,1.7584H60.74a6.0393,6.0393,0,0,1-4.3763-1.771L13.4783,99.9976a5.5683,5.5683,0,0,1-1.7416-4.138,6.0845,6.0845,0,0,1,1.7479-4.18l17.58-16.89Z" transform="translate(0.006 0.006)"/></svg>