<?xml version="1.0" encoding="utf-8"?>
<!-- Generator: Adobe Illustrator 22.1.0, SVG Export Plug-In . SVG Version: 6.00 Build 0)  -->
<svg version="1.1" id="Layer_1" xmlns="http://www.w3.org/2000/svg" xmlns:xlink="http://www.w3.org/1999/xlink" x="0px" y="0px"
	 viewBox="0 0 200 200" style="enable-background:new 0 0 200 200;" xml:space="preserve">
<path d="M168.9,168.8l-127.8,0l39.1-9.2c0.4,0,0.8-0.1,1.2-0.3c0,0,0.1,0,0.1,0c0.4-0.2,0.8-0.4,1.2-0.8c0,0,0.1-0.1,0.2-0.1
	l72.5-70.1l0,0c0,0,0,0,0,0l20.7-20c5-4.9,5.2-12.9,0.4-18l0,0l-25-26.5c-4.8-5.1-12.8-5.3-17.8-0.4l-93.3,90.1c0,0-0.1,0.1-0.1,0.2
	c-0.3,0.3-0.6,0.7-0.8,1.2c0,0,0,0.1,0,0.1c-0.2,0.4-0.3,0.8-0.3,1.2l-12.6,49.1c-0.2,1.4,0.4,2.6,1.3,3.5h-2.3
	c-3.1,0-5.5,2.5-5.5,5.6c0,1.5,0.6,2.9,1.6,3.9c1,1,2.4,1.6,3.9,1.6l143.4,0c3.1,0,5.5-2.5,5.5-5.6S171.9,168.8,168.9,168.8z
	 M139.5,29.6c1.7-1.6,4.3-1.6,5.9,0.1c0,0,0,0,0,0l25,26.5c1.6,1.7,1.5,4.4-0.1,6l-17.7,17.1l-30.8-32.6L139.5,29.6z M115.7,52.6
	l30.8,32.6l-66.5,64.3l-30.8-32.6L115.7,52.6z M46.5,126.2l24.2,25.6l-33.2,8.9L46.5,126.2z"/>
</svg>
