<svg xmlns="http://www.w3.org/2000/svg" viewBox="0 0 159.8785 160.0534"><title>small-yes</title><path d="M174.3785,168.8H41.1l39.1-9.2a2.6626,2.6626,0,0,0,1.2-.3h.1a4.184,4.184,0,0,0,1.2-.8.3491.3491,0,0,1,.2-.1l72.5-70.1h0l20.7-20a12.8614,12.8614,0,0,0,.4-18h0l-25-26.5a12.44,12.44,0,0,0-17.8-.4L40.4,113.5a.3491.3491,0,0,0-.1.2,3.596,3.596,0,0,0-.8,1.2v.1a2.6626,2.6626,0,0,0-.3,1.2L26.6,165.3a4.08,4.08,0,0,0,1.3,3.5H25.6a5.55,5.55,0,1,0,0,11.1H174.4784a5.5065,5.5065,0,0,0,5.5-5.6A5.5694,5.5694,0,0,0,174.3785,168.8ZM139.5,29.6a4.1348,4.1348,0,0,1,5.9.1h0l25,26.5a4.35,4.35,0,0,1-.1,6L152.6,79.3,121.8,46.7Zm-23.8,23,30.8,32.6L80,149.5,49.2,116.9ZM46.5,126.2l24.2,25.6-33.2,8.9Z" transform="translate(-20.1 -19.8466)"/><path d="M122.7958,138.6283v21.5048h3.9678a2.99,2.99,0,0,1,2.0215.5459,1.8352,1.8352,0,0,1,.6035,1.4278,1.8143,1.8143,0,0,1-.6035,1.4092,2.99,2.99,0,0,1-2.0215.5458H114.8993a2.99,2.99,0,0,1-2.0215-.5458,1.8341,1.8341,0,0,1-.6045-1.4278,1.8118,1.8118,0,0,1,.6045-1.4092,2.99,2.99,0,0,1,2.0215-.5459h3.9678V143.7454l-3.5078.9209a5.3154,5.3154,0,0,1-1.2647.23,1.7039,1.7039,0,0,1-1.2939-.5937,2.0734,2.0734,0,0,1-.5459-1.457,1.79,1.79,0,0,1,.4023-1.2364,3.6014,3.6014,0,0,1,1.6866-.7949Z" transform="translate(-20.1 -19.8466)"/><path d="M140.6776,160.1331h8.6055a2.1767,2.1767,0,0,1,1.3418-.5752,1.8136,1.8136,0,0,1,1.4277.5938,3.0706,3.0706,0,0,1,.5274,2.0322v1.8779H134.6786v-4.1591q10.6172-8.7584,12.8223-11.27a3.8264,3.8264,0,0,0,1.1113-2.4336,3.3044,3.3044,0,0,0-1.2559-2.54,4.8865,4.8865,0,0,0-3.3437-1.1016,5.1286,5.1286,0,0,0-3.5078,1.2266,4.5073,4.5073,0,0,0-1.169,1.9356,2.2665,2.2665,0,0,1-.7382,1.15,2.0312,2.0312,0,0,1-2.5489-.23,1.8243,1.8243,0,0,1-.584-1.3418,5.8644,5.8644,0,0,1,1.0635-2.875,7.5517,7.5517,0,0,1,3.1045-2.76,9.68,9.68,0,0,1,4.4375-1.0351,8.5044,8.5044,0,0,1,6.0947,2.2519,7.2385,7.2385,0,0,1,2.376,5.4531,6.7741,6.7741,0,0,1-.68,3.0186,16.0813,16.0813,0,0,1-3.2685,3.8428Q146.561,155.1312,140.6776,160.1331Z" transform="translate(-20.1 -19.8466)"/><path d="M173.51,150.9329a8.1114,8.1114,0,0,1,2.6064,2.751,7.1092,7.1092,0,0,1,.8623,3.4971,6.9895,6.9895,0,0,1-4.4463,6.5459,14.8481,14.8481,0,0,1-5.6728.91q-4.563,0-6.8623-1.4189a2.285,2.285,0,0,1-1.2832-1.916,1.9752,1.9752,0,0,1,.5644-1.4278,1.8375,1.8375,0,0,1,1.3711-.5849,2.1212,2.1212,0,0,1,1.1494.3838,5.1692,5.1692,0,0,0,1.5908.7666,14.6131,14.6131,0,0,0,3.1631.2676,10.356,10.356,0,0,0,4.9639-.8907,2.7817,2.7817,0,0,0,1.5332-2.52,3.7017,3.7017,0,0,0-.8916-2.3291,5.7776,5.7776,0,0,0-2.3857-1.7344,10.5367,10.5367,0,0,0-2.9131-.4785,2.1849,2.1849,0,0,1-1.5049-.6045,1.8674,1.8674,0,0,1-.5274-1.35,1.9239,1.9239,0,0,1,.5752-1.418,1.9724,1.9724,0,0,1,1.4571-.5752q1.9541,0,2.0888-.02a3.9933,3.9933,0,0,0,1.5332-.4981,3.3719,3.3719,0,0,0,1.2364-1.16,2.803,2.803,0,0,0,.47-1.5235,2.7261,2.7261,0,0,0-1.1025-2.1562,5.1045,5.1045,0,0,0-3.3057-.91,5.5516,5.5516,0,0,0-4.332,1.6484,2.8724,2.8724,0,0,1-.709.6133,1.91,1.91,0,0,1-.9.211,1.8825,1.8825,0,0,1-1.3809-.5752,1.9281,1.9281,0,0,1-.5742-1.418,3.3614,3.3614,0,0,1,1.7627-2.5684,10.8268,10.8268,0,0,1,6.4209-1.8212,8.1934,8.1934,0,0,1,5.8457,2.07,6.5947,6.5947,0,0,1,2.2041,4.9834,6.2867,6.2867,0,0,1-.6514,2.8271A7.7241,7.7241,0,0,1,173.51,150.9329Z" transform="translate(-20.1 -19.8466)"/></svg>