<svg xmlns="http://www.w3.org/2000/svg" viewBox="0 0 160.0192 159.9999"><title>small-no</title><path d="M148.917,148.9037H21.06l39.1176-9.197a2.6647,2.6647,0,0,0,1.2005-.3h.1a4.1874,4.1874,0,0,0,1.2006-.8.3489.3489,0,0,1,.2-.1L135.4109,68.43h0L156.12,48.4369a12.85,12.85,0,0,0,.4-17.994h0L131.5091,3.9517a12.4525,12.4525,0,0,0-17.59-.608q-.11.1027-.2178.2081l-93.3419,90.07a.3489.3489,0,0,0-.1.2,3.5925,3.5925,0,0,0-.8,1.2v.1a2.66,2.66,0,0,0-.3,1.2L6.5529,145.4048a4.0775,4.0775,0,0,0,1.3006,3.4989H5.5525A5.5482,5.5482,0,0,0,5.5049,160c.0159,0,.0317,0,.0476,0H149.017a5.5069,5.5069,0,0,0,5.5033-5.51c0-.0292,0-.0585-.0008-.0878A5.57,5.57,0,0,0,148.917,148.9037ZM119.5037,9.75a4.139,4.139,0,0,1,5.85.0455l.0527.0545h0l25.0112,26.4912a4.3459,4.3459,0,0,1-.1,5.998L132.61,59.4333,101.7958,26.8441ZM95.693,32.7421l30.8139,32.5892L59.977,129.61,29.1631,97.0208ZM26.4619,106.3178l24.2109,25.5915-33.215,8.897Z" transform="translate(0.0195 -0.0001)"/></svg>