<svg xmlns="http://www.w3.org/2000/svg" viewBox="0 0 160 160"><title>small-yes</title><path d="M154.3877,148.9037H21.0665l39.1125-9.197a2.6647,2.6647,0,0,0,1.2-.3h.1a4.1851,4.1851,0,0,0,1.2-.8.3489.3489,0,0,1,.2-.1L135.4033,68.43h0L156.11,48.4366a12.8511,12.8511,0,0,0,.4-17.994h0L131.5019,3.9517a12.45,12.45,0,0,0-17.5878-.608q-.11.1027-.2178.2081l-93.33,90.07a.3483.3483,0,0,0-.1.2,3.5943,3.5943,0,0,0-.8,1.2v.1a2.66,2.66,0,0,0-.3,1.2L6.5618,145.4048a4.0777,4.0777,0,0,0,1.3005,3.4989H5.5616A5.5482,5.5482,0,0,0,5.514,160c.0159,0,.0317,0,.0476,0H154.4877a5.5066,5.5066,0,0,0,5.5026-5.51q0-.0438-.0008-.0878A5.57,5.57,0,0,0,154.3877,148.9037ZM119.4981,9.75a4.138,4.138,0,0,1,5.8493.0455L125.4,9.85h0l25.008,26.4912a4.3463,4.3463,0,0,1-.1,5.998L132.6023,59.4333l-30.81-32.5892ZM95.69,32.7421,126.5,65.3313,59.9789,129.61l-30.81-32.5892ZM26.4682,106.3178,50.676,131.9093l-33.2107,8.897Z" transform="translate(0.0097 -0.0001)"/><path d="M102.7913,118.7419V140.24h3.9695a2.9931,2.9931,0,0,1,2.0224.5458,1.8336,1.8336,0,0,1,.6038,1.4273,1.8128,1.8128,0,0,1-.6038,1.4087,2.9925,2.9925,0,0,1-2.0224.5456h-11.87a2.9925,2.9925,0,0,1-2.0224-.5456,1.8328,1.8328,0,0,1-.6048-1.4273,1.81,1.81,0,0,1,.6048-1.4087,2.9931,2.9931,0,0,1,2.0224-.5458H98.86V123.8574l-3.5093.9206a5.3216,5.3216,0,0,1-1.2653.23,1.7049,1.7049,0,0,1-1.2944-.5935,2.0716,2.0716,0,0,1-.5462-1.4565,1.7882,1.7882,0,0,1,.4025-1.236,3.6053,3.6053,0,0,1,1.6873-.7947Z" transform="translate(0.0097 -0.0001)"/><path d="M120.681,140.24h8.609a2.1791,2.1791,0,0,1,1.3424-.575,1.8152,1.8152,0,0,1,1.4283.5936,3.0681,3.0681,0,0,1,.5277,2.0316v1.8772h-17.909V140.01q10.6218-8.7555,12.8279-11.2663a3.8234,3.8234,0,0,0,1.1118-2.4328,3.3025,3.3025,0,0,0-1.2564-2.5391,4.8914,4.8914,0,0,0-3.3452-1.1012,5.1332,5.1332,0,0,0-3.5094,1.2261,4.5075,4.5075,0,0,0-1.1695,1.935,2.2655,2.2655,0,0,1-.7385,1.15,2.0333,2.0333,0,0,1-2.55-.23,1.8238,1.8238,0,0,1-.5842-1.3414,5.861,5.861,0,0,1,1.064-2.874,7.5539,7.5539,0,0,1,3.1058-2.7591,9.6907,9.6907,0,0,1,4.4395-1.0347,8.5123,8.5123,0,0,1,6.0974,2.2511,7.2337,7.2337,0,0,1,2.3771,5.4513,6.7678,6.7678,0,0,1-.68,3.0176,16.0808,16.0808,0,0,1-3.27,3.8415Q126.5671,135.2395,120.681,140.24Z" transform="translate(0.0097 -0.0001)"/><path d="M153.5279,131.0425a8.1112,8.1112,0,0,1,2.6076,2.75,7.1021,7.1021,0,0,1,.8627,3.4959,6.9872,6.9872,0,0,1-4.4483,6.5438,14.8679,14.8679,0,0,1-5.6753.91q-4.5651,0-6.8654-1.4185a2.2841,2.2841,0,0,1-1.2837-1.9153,1.9737,1.9737,0,0,1,.5646-1.4274,1.84,1.84,0,0,1,1.3717-.5847,2.1234,2.1234,0,0,1,1.15.3837,5.1764,5.1764,0,0,0,1.5916.7664,14.6335,14.6335,0,0,0,3.1645.2675,10.3689,10.3689,0,0,0,4.966-.89,2.78,2.78,0,0,0,1.5339-2.5192,3.6975,3.6975,0,0,0-.892-2.3283,5.78,5.78,0,0,0-2.3867-1.7339,10.55,10.55,0,0,0-2.9144-.4783,2.1874,2.1874,0,0,1-1.5056-.6043,1.8661,1.8661,0,0,1-.5276-1.35,1.9223,1.9223,0,0,1,.5754-1.4175,1.9739,1.9739,0,0,1,1.4578-.575q1.955,0,2.09-.02a4,4,0,0,0,1.5339-.4979,3.3727,3.3727,0,0,0,1.237-1.16,2.8006,2.8006,0,0,0,.47-1.523,2.7248,2.7248,0,0,0-1.103-2.1554,5.11,5.11,0,0,0-3.3072-.91,5.5565,5.5565,0,0,0-4.3339,1.6479,2.8732,2.8732,0,0,1-.7093.6131,1.9111,1.9111,0,0,1-.9.2109,1.8839,1.8839,0,0,1-1.3815-.575,1.9266,1.9266,0,0,1-.5745-1.4175,3.361,3.361,0,0,1,1.7635-2.5676,10.8386,10.8386,0,0,1,6.4237-1.8206,8.201,8.201,0,0,1,5.8483,2.0694,6.59,6.59,0,0,1,2.2051,4.9817,6.2793,6.2793,0,0,1-.6517,2.8262A7.7209,7.7209,0,0,1,153.5279,131.0425Z" transform="translate(0.0097 -0.0001)"/></svg>