<svg xmlns="http://www.w3.org/2000/svg" viewBox="0 0 160 160.0011"><title>small-no</title><path d="M61.8474,139.664l.2758-.0839a5.1177,5.1177,0,0,0,1.3133-.8382l.1225-.0164,71.8762-69.4432,20.4584-19.75a13.7511,13.7511,0,0,0,.4234-19.1581L131.6165,4.2121a13.306,13.306,0,0,0-18.7694-.6482l-92.431,89.19a1.3377,1.3377,0,0,0-.2609.3656,4.5156,4.5156,0,0,0-.8479,1.3465l-.0723.1784v.0714a3.6224,3.6224,0,0,0-.2928,1.2655L6.5177,144.3546l-.0236.1283a5.017,5.017,0,0,0,.3762,2.586H6.4632a6.4679,6.4679,0,1,0,.0232,12.9358H148.1887a6.4353,6.4353,0,0,0,6.423-6.43l-.001-.0994a6.5065,6.5065,0,0,0-6.49-6.4066h-117.8l30.2486-7.1107A3.67,3.67,0,0,0,61.8474,139.664ZM119.73,11.3175a3.1131,3.1131,0,0,1,4.4187.0728l24.6966,26.157a3.2969,3.2969,0,0,1-.0588,4.5441L132.0149,58.282,102.9363,27.5294l16.7872-16.2056ZM124.5656,65.48,60.2742,127.5964,31.196,96.8432,95.4879,34.7269ZM19.63,138.6657l8.0146-30.6991,21.5507,22.779Z" transform="translate(0.0047 -0.0035)"/></svg>