<svg xmlns="http://www.w3.org/2000/svg" viewBox="0 0 159.8785 160.0534"><title>small-no</title><path d="M168.9,168.8H41.1l39.1-9.2a2.6626,2.6626,0,0,0,1.2-.3h.1a4.184,4.184,0,0,0,1.2-.8.3491.3491,0,0,1,.2-.1l72.5-70.1h0l20.7-20a12.8614,12.8614,0,0,0,.4-18h0l-25-26.5a12.44,12.44,0,0,0-17.8-.4L40.4,113.5a.3491.3491,0,0,0-.1.2,3.596,3.596,0,0,0-.8,1.2v.1a2.6626,2.6626,0,0,0-.3,1.2L26.6,165.3a4.08,4.08,0,0,0,1.3,3.5H25.6a5.55,5.55,0,1,0,0,11.1H169a5.5065,5.5065,0,0,0,5.5-5.6A5.57,5.57,0,0,0,168.9,168.8ZM139.5,29.6a4.1348,4.1348,0,0,1,5.9.1h0l25,26.5a4.35,4.35,0,0,1-.1,6L152.6,79.3,121.8,46.7Zm-23.8,23,30.8,32.6L80,149.5,49.2,116.9ZM46.5,126.2l24.2,25.6-33.2,8.9Z" transform="translate(-20.1 -19.8466)"/></svg>