<svg xmlns="http://www.w3.org/2000/svg" viewBox="0 0 160 159.9914"><title>small-yes</title><path d="M159.9988,153.4711a6.5061,6.5061,0,0,0-6.4883-6.4063H30.3194l30.2425-7.11a3.6651,3.6651,0,0,0,1.278-.2942l.2758-.0839a5.1039,5.1039,0,0,0,1.3132-.8391l.122-.0154L135.4145,69.283l20.4552-19.75a13.7528,13.7528,0,0,0,.4234-19.1569L131.597,4.2166a13.3029,13.3029,0,0,0-18.7663-.6481L20.4169,92.7527a1.3377,1.3377,0,0,0-.2609.3656,4.5141,4.5141,0,0,0-.8478,1.3464l-.0724.1784v.0714a3.624,3.624,0,0,0-.2927,1.2654L6.5213,144.3507l-.0237.1283a5.021,5.021,0,0,0,.3762,2.5858H6.4673A6.4675,6.4675,0,1,0,6.49,160H153.5781A6.4247,6.4247,0,0,0,160,153.57ZM119.7124,11.3217a3.1127,3.1127,0,0,1,4.4184.0728L148.8221,37.55a3.2965,3.2965,0,0,1-.0588,4.5437l-16.7689,16.19-29.073-30.7508,16.7843-16.2046ZM31.1952,96.8422,95.4735,34.73l29.073,30.7512L60.2677,127.5934Zm-11.5634,41.82,8.0131-30.6973,21.5465,22.7787Z" transform="translate(0.0003 -0.0084)"/><path d="M94.81,138.5135a3.915,3.915,0,0,0-2.6658.7186l-.082.0656a2.7232,2.7232,0,0,0-.9269,2.093,2.7926,2.7926,0,0,0,.922,2.1788l.0878.07a3.9223,3.9223,0,0,0,2.2444.7388c.11,0,.219-.0058.327-.0164l11.63-.0048a3.9138,3.9138,0,0,0,2.6649-.7176l.0849-.0675a2.7274,2.7274,0,0,0,.9239-2.092,2.7887,2.7887,0,0,0-.922-2.1789l-.0859-.0694a3.863,3.863,0,0,0-2.5723-.7234h-2.933v-21.52l-9.5149,2.4605a4.557,4.557,0,0,0-2.1286,1.0031l-.1254.1273a2.6677,2.6677,0,0,0-.6221,1.821,2.993,2.993,0,0,0,.7774,2.1084,2.6864,2.6864,0,0,0,2.0737.9288h.0115a6.13,6.13,0,0,0,1.4429-.2575l2.228-.5845V138.51Z" transform="translate(0.0003 -0.0084)"/><path d="M132.24,138.9543l-.0811-.1022a2.7915,2.7915,0,0,0-2.2038-.91,3.1377,3.1377,0,0,0-1.61.5661h-5.4784c2.772-2.3755,4.72-4.0981,5.7842-5.1128a16.873,16.873,0,0,0,3.476-4.1136,7.7,7.7,0,0,0,.7707-3.3989,8.1327,8.1327,0,0,0-2.6659-6.1227,9.3031,9.3031,0,0,0-6.684-2.4845,10.6564,10.6564,0,0,0-4.82,1.12,8.381,8.381,0,0,0-3.4442,3.0421,6.8222,6.8222,0,0,0-1.2346,3.4095,2.79,2.79,0,0,0,.8768,2.0361,3.0084,3.0084,0,0,0,3.7567.3375l.0791-.06a3.1751,3.1751,0,0,0,1.0465-1.6136,3.441,3.441,0,0,1,.85-1.4419,4.0668,4.0668,0,0,1,2.8752-.9751,3.8182,3.8182,0,0,1,2.6408.8758,2.2486,2.2486,0,0,1,.869,1.6618,2.8506,2.8506,0,0,1-.8555,1.821c-1.413,1.6078-5.6375,5.3144-12.5549,11.0175l-.36.2961v5.5594h19.6624l-.0048-2.7469A4.0144,4.0144,0,0,0,132.24,138.9543Z" transform="translate(0.0003 -0.0084)"/><path d="M150.2554,138.283a9.428,9.428,0,0,1-4.5245.7919,13.3425,13.3425,0,0,1-2.8308-.2267,4.1092,4.1092,0,0,1-1.2742-.6144,3.0886,3.0886,0,0,0-1.6888-.5584,2.797,2.797,0,0,0-2.0756.8729,2.9753,2.9753,0,0,0-.8372,2.1624,3.2469,3.2469,0,0,0,1.7747,2.6958c1.6859,1.0252,4.06,1.5229,7.2193,1.5229h.0058c.1881.0068.3752.0106.5623.0106a15.6065,15.6065,0,0,0,5.4359-.976,7.9274,7.9274,0,0,0,5.0222-7.3688,8.0519,8.0519,0,0,0-.9838-3.9613,9.0471,9.0471,0,0,0-1.9088-2.309,8.6194,8.6194,0,0,0,1.2963-1.8682,7.2122,7.2122,0,0,0,.7456-3.2205,7.4956,7.4956,0,0,0-2.5087-5.6665,8.9139,8.9139,0,0,0-6.3966-2.2926,11.5424,11.5424,0,0,0-6.89,1.9367,4.3441,4.3441,0,0,0-2.2193,3.3613,2.8826,2.8826,0,0,0,.8449,2.1084,2.84,2.84,0,0,0,2.0621.87,3.2755,3.2755,0,0,0,1.4159-.353,3.61,3.61,0,0,0,.89-.7562,4.4886,4.4886,0,0,1,3.5089-1.3339l.07.0049.0695-.0058a4.0927,4.0927,0,0,1,2.6061.707,1.7053,1.7053,0,0,1,.6886,1.3252,1.8047,1.8047,0,0,1-.3115.9876,2.3667,2.3667,0,0,1-.8758.8141,2.9363,2.9363,0,0,1-1.12.3674c-.05.0039-.3414.0145-1.9377.0155a2.8329,2.8329,0,0,0-2.1634.85,2.9737,2.9737,0,0,0-.0376,4.1532,3.1214,3.1214,0,0,0,2.148.87,9.3714,9.3714,0,0,1,2.5424.4061,4.7421,4.7421,0,0,1,1.9647,1.4342,2.6654,2.6654,0,0,1,.6424,1.6686A1.7541,1.7541,0,0,1,150.2554,138.283Z" transform="translate(0.0003 -0.0084)"/></svg>