<svg xmlns="http://www.w3.org/2000/svg" viewBox="0 0 160 160"><title>star-full</title><path d="M88.31,5.4091l17.5063,37.1432a9.3847,9.3847,0,0,0,7.0207,5.3315l39.1913,5.9536c7.6437,1.1552,10.6643,10.93,5.1553,16.5279L128.8342,99.2446a9.8368,9.8368,0,0,0-2.666,8.6193l6.6652,40.7856c1.333,7.9085-6.6652,13.9509-13.5082,10.2188L84.3117,139.5859a8.7692,8.7692,0,0,0-8.62,0L40.6769,158.8683C33.834,162.6,25.9246,156.558,27.1688,148.65l6.6652-40.7856a9.917,9.917,0,0,0-2.6661-8.6193L2.8186,70.2764C-2.6913,64.6783.33,54.9037,7.973,53.7486L47.0755,47.795a9.5385,9.5385,0,0,0,7.0206-5.3316L71.6034,5.32A9.1857,9.1857,0,0,1,88.31,5.4091" transform="translate(-0.0009 0.0003)"/></svg>