<svg xmlns="http://www.w3.org/2000/svg" viewBox="0 0 160 160"><title>star-empty</title><path d="M79.9356,15.788,94.951,47.646a21.2593,21.2593,0,0,0,16.1067,12.1052l34.5738,5.2522L120.2993,90.8092a21.8846,21.8846,0,0,0-5.974,18.99l5.8573,35.8418-30.04-16.5433a20.769,20.769,0,0,0-20.2775-.0029L39.82,145.6413l5.8509-35.8029a21.8441,21.8441,0,0,0-5.9631-19.0247L14.3612,64.9143,48.86,59.6617A21.5586,21.5586,0,0,0,64.829,47.83l.0624-.1246.0594-.1261L79.9356,15.788M79.9255,0A9.1909,9.1909,0,0,0,71.6034,5.32L54.0961,42.4634a9.5385,9.5385,0,0,1-7.0206,5.3316L7.973,53.7486C.33,54.9037-2.6913,64.6783,2.8186,70.2764L31.1679,99.2446a9.9168,9.9168,0,0,1,2.6661,8.6193L27.1688,148.65A9.6311,9.6311,0,0,0,36.35,160a8.99,8.99,0,0,0,4.3266-1.1314l35.0145-19.2825a8.77,8.77,0,0,1,8.62,0l35.0135,19.2825A9.0056,9.0056,0,0,0,123.661,160a9.5778,9.5778,0,0,0,9.1724-11.35l-6.6652-40.7856a9.8368,9.8368,0,0,1,2.666-8.6193l28.3493-28.8793c5.509-5.5982,2.4884-15.3727-5.1553-16.5279l-39.1913-5.9536a9.3847,9.3847,0,0,1-7.0207-5.3315L88.31,5.409A9.2413,9.2413,0,0,0,79.9255,0Z" transform="translate(-0.0009 0.0003)"/></svg>